<svg xmlns="http://www.w3.org/2000/svg" viewBox="0 0 560 120"><defs><style>.cls-1{fill:#5c7080;}.cls-1,.cls-2,.cls-3,.cls-4{fill-rule:evenodd;}.cls-2{fill:#8a9ba8;}.cls-3{fill:#bfccd6;}.cls-4,.cls-5{fill:#e1e8ed;}</style></defs><g id="side-by-side"><g id="cloud-2" data-name="cloud"><g id="cloud_copy" data-name="cloud copy"><g id="_0" data-name="0"><path class="cls-1" d="M76.85,74.17H87.59a15.41,15.41,0,0,1-.19-2.46,15.18,15.18,0,0,1,14.93-15.43,14.49,14.49,0,0,1,8.24,2.56,9.22,9.22,0,0,1,8.83-7,8.93,8.93,0,0,1,3.83.87c2.9-12.07,13.45-21,26-21a26.57,26.57,0,0,1,22.2,12.16,14.47,14.47,0,0,1,21.66-.07c2.27-19.06,18-33.81,37-33.81,20.62,0,37.34,17.27,37.34,38.57,0,.83,0,1.67-.08,2.49l.11,0a12.34,12.34,0,0,1,24.65,1,13.32,13.32,0,0,1-.23,2.46,7.79,7.79,0,0,1,2.52-.41,8.2,8.2,0,0,1,8.07,8.34,8.36,8.36,0,0,1-.33,2.36h17.4a8,8,0,0,1-.31-2.2A7.84,7.84,0,0,1,324.8,55a10.53,10.53,0,0,1,10.36-10.39,10.08,10.08,0,0,1,6.22,2.15,17.28,17.28,0,0,1,13.74-6.87A15.78,15.78,0,0,1,357,40c4.53-14.49,17.69-25,33.22-25s28.63,10.43,33.18,24.87a13.43,13.43,0,0,1,2-.16,12.86,12.86,0,0,1,12.22,9.3,12.54,12.54,0,0,1,3.78-.48c11.15.44,14.8,11.82,14.95,12.12a.71.71,0,0,0,.44.38c.12.06,2-.38,3-.38a13,13,0,0,1,12.8,13.22v.26h10.55a6.39,6.39,0,0,1,6.27,6.48h0a6.39,6.39,0,0,1-6.27,6.48H76.85a6.39,6.39,0,0,1-6.27-6.48h0A6.39,6.39,0,0,1,76.85,74.17Z"/><path class="cls-1" d="M320,10c20.37,0,37.53,9,42.75,21.22a43.37,43.37,0,0,1,8.68-.87c11.4,0,21.25,4.33,25.92,10.62a25.7,25.7,0,0,1,11.79-2.7c10.44,0,18.9,5.53,18.9,12.37a8.24,8.24,0,0,1-.3,2.21h9c5,0,9.12,2.68,9.12,6h0c0,3.28-4.1,6-9.12,6H134.39c-5,0-9.12-2.68-9.12-6h0a4,4,0,0,1,.17-1.15,5.53,5.53,0,0,1-.17-1.34c0-4.49,5.55-8.12,12.4-8.12A16.82,16.82,0,0,1,145.4,50c3.07-4.12,9.53-7,17-7a28.32,28.32,0,0,1,5.7.57c3.42-8,14.68-13.92,28-13.92s24.4,5.77,27.94,13.68a28.12,28.12,0,0,1,4.36-.33,24.45,24.45,0,0,1,13.74,3.87c1.76-9.32,13.9-16.54,28.61-16.54a43.73,43.73,0,0,1,6.66.51C282.86,18.8,299.88,10,320,10Z"/></g><path id="_1" data-name="1" class="cls-2" d="M434.54,77.91A13.61,13.61,0,0,0,418,68,11.31,11.31,0,0,0,407.21,60a11.66,11.66,0,0,0-1.78.13,30.81,30.81,0,0,0-58.61.08c-.53,0-1.07-.08-1.62-.08A15.42,15.42,0,0,0,333.07,66a9.15,9.15,0,0,0-14.64,7h0a6.73,6.73,0,0,0-4.84,6.46,6.9,6.9,0,0,0,.26,1.89H298.5a7.28,7.28,0,0,0,.29-2.25,7.13,7.13,0,0,0-9.35-6.55,10.9,10.9,0,1,0-21.56-3l-.1,0c.05-.7.07-1.41.07-2.13,0-6.17.18-8.34-4.91-17.31-5.37-8.37-16.2-15.65-28.05-15.65a33,33,0,0,0-32.71,28.89,13,13,0,0,0-19.12.07,23.68,23.68,0,0,0-42.58,7.57,8,8,0,0,0-3.38-.74,8.07,8.07,0,0,0-7.79,6c-2.09-1.38-14.18-2.39-17.15,5.33-3,11.06,3,12.83,6.9,12.83H235.88c.93,0,133,5.4,198.47,5.4,15.31,0,14.47-9.51,14.23-13.44s-5.68-8.54-11-8.54Z"/><path id="_2" data-name="2" class="cls-3" d="M308.67,40.3a37,37,0,0,1,35.59,27,24,24,0,0,1,28.82,12.4A15.73,15.73,0,0,1,398.63,92a15.49,15.49,0,0,1-.26,2.82h7.53a7.61,7.61,0,0,1,7.59,7.59h0A7.61,7.61,0,0,1,405.9,110H154.1a7.61,7.61,0,0,1-7.59-7.59h0a7.77,7.77,0,0,1,.14-1.46,10.76,10.76,0,0,1-.14-1.71,10.33,10.33,0,0,1,16.76-8.07A15.75,15.75,0,0,1,182.17,83a24.24,24.24,0,0,1,46.61-.31,16.18,16.18,0,0,1,3.64-.42,15.69,15.69,0,0,1,11.44,4.93,24,24,0,0,1,29.36-20.4A37,37,0,0,1,308.67,40.3Z"/><g id="_3" data-name="3"><path class="cls-4" d="M384.22,110H169.48a8.35,8.35,0,0,1,13.5-5.6,12.74,12.74,0,0,1,15.29-6.58A19.61,19.61,0,0,1,236,97.57a12.84,12.84,0,0,1,2.93-.34,12.66,12.66,0,0,1,9.25,4,19.42,19.42,0,0,1,23.74-16.5,29.89,29.89,0,0,1,57.45.38,19.41,19.41,0,0,1,23.3,10,12.73,12.73,0,0,1,20.66,9.95,13.15,13.15,0,0,1-.2,2.28h6.08A6.14,6.14,0,0,1,384.22,110Z"/><rect class="cls-5" x="378.78" y="87.87" width="11.74" height="11.58" rx="5.79"/></g></g></g></g></svg>