<svg id="logo" xmlns="http://www.w3.org/2000/svg" viewBox="0 0 518.39 217.13"><defs><style>.cls-1{fill:#5c7080;}.cls-1,.cls-2,.cls-3,.cls-4{fill-rule:evenodd;}.cls-2{fill:#8a9ba8;}.cls-3{fill:#bfccd6;}.cls-4,.cls-5{fill:#e1e8ed;}.cls-6{font-size:82px;fill:#fff;font-family:KGRedHands, KG Red Hands;}.cls-7{letter-spacing:-0.04em;}.cls-8{letter-spacing:-0.01em;}</style></defs><g id="cloud"><g id="_0" data-name="0"><path class="cls-1" d="M31.61,99.79H44.75a19.83,19.83,0,0,1-.23-3c0-10.42,8.18-18.88,18.27-18.88A17.79,17.79,0,0,1,72.88,81a11.25,11.25,0,0,1,10.8-8.53,10.89,10.89,0,0,1,4.69,1.06c3.54-14.77,16.46-25.72,31.86-25.72A32.52,32.52,0,0,1,147.4,62.73a17.69,17.69,0,0,1,26.51-.09c2.78-23.32,22-41.38,45.34-41.38,25.24,0,45.69,21.14,45.69,47.2q0,1.55-.09,3.06l.14,0a15.09,15.09,0,0,1,30.16,1.21,16.52,16.52,0,0,1-.28,3A9.52,9.52,0,0,1,298,75.2a10.05,10.05,0,0,1,9.88,10.22,10.62,10.62,0,0,1-.4,2.89h21.29a10.06,10.06,0,0,1-.37-2.7,9.58,9.58,0,0,1,6.72-9.25,12.86,12.86,0,0,1,12.67-12.71,12.32,12.32,0,0,1,7.61,2.62,21.16,21.16,0,0,1,16.82-8.4,20.6,20.6,0,0,1,2.24.12c5.54-17.73,21.64-30.56,40.65-30.56s35,12.77,40.61,30.44a15.53,15.53,0,0,1,2.47-.2,15.74,15.74,0,0,1,15,11.38,16.14,16.14,0,0,1,4.62-.59C491.37,69,495.84,82.94,496,83.3a.83.83,0,0,0,.53.46c.16.08,2.45-.46,3.73-.46A15.92,15.92,0,0,1,516,99.48v.31h12.9a7.83,7.83,0,0,1,7.68,7.94h0a7.83,7.83,0,0,1-7.68,7.93H31.61a7.83,7.83,0,0,1-7.68-7.93h0A7.84,7.84,0,0,1,31.61,99.79Z" transform="translate(-20.81 -21.26)"/><path class="cls-1" d="M329.24,21.26c24.92,0,45.93,11,52.31,26a52.75,52.75,0,0,1,10.62-1.06c13.95,0,26,5.3,31.74,13a31.37,31.37,0,0,1,14.42-3.3c12.78,0,23.13,6.77,23.13,15.14a10.22,10.22,0,0,1-.37,2.7h11.07c6.14,0,11.16,3.29,11.16,7.31h0c0,4-5,7.3-11.16,7.3H102c-6.14,0-11.16-3.29-11.16-7.3h0a5.17,5.17,0,0,1,.21-1.41A6.89,6.89,0,0,1,90.86,78c0-5.49,6.8-9.93,15.18-9.93a20.54,20.54,0,0,1,9.46,2.17c3.76-5,11.67-8.53,20.82-8.53a34.82,34.82,0,0,1,7,.7c4.19-9.83,18-17,34.32-17,16.19,0,29.86,7.07,34.19,16.75a34.52,34.52,0,0,1,5.35-.41A29.9,29.9,0,0,1,234,66.41c2.15-11.41,17-20.24,35-20.24a52.65,52.65,0,0,1,8.14.62C283.73,32,304.56,21.26,329.24,21.26Z" transform="translate(-20.81 -21.26)"/></g><path id="_1" data-name="1" class="cls-2" d="M478.94,104.37A16.62,16.62,0,0,0,458.71,92.2a13.84,13.84,0,0,0-13.21-9.73,14.25,14.25,0,0,0-2.18.17,37.71,37.71,0,0,0-71.73.1,18.62,18.62,0,0,0-2-.1,18.92,18.92,0,0,0-14.85,7.18,11.2,11.2,0,0,0-17.91,8.62h0a8.27,8.27,0,0,0-5.61,10.21H312.45a8.62,8.62,0,0,0,.35-2.75A8.79,8.79,0,0,0,305,97.51a8.66,8.66,0,0,0-3.68.38A13.32,13.32,0,0,0,288.87,82,13.34,13.34,0,0,0,275,94.28l-.12,0c.05-.86.08-1.73.08-2.61,0-7.55.22-10.2-6-21.18-6.58-10.25-19.83-19.15-34.33-19.15a40.33,40.33,0,0,0-40,35.36,16,16,0,0,0-23.41.08,29,29,0,0,0-52.11,9.26,9.88,9.88,0,0,0-13.68,6.38c-2.55-1.69-17.35-2.93-21,6.52-3.75,13.54,3.64,15.7,8.43,15.7h143c1.15,0,162.76,6.62,242.91,6.62,18.74,0,17.7-11.65,17.4-16.45s-6.94-10.46-13.41-10.46Z" transform="translate(-20.81 -21.26)"/><path id="_2" data-name="2" class="cls-3" d="M317.27,58.35a45.22,45.22,0,0,1,43.56,33,29.43,29.43,0,0,1,35.26,15.17,19.29,19.29,0,0,1,31,18.5h9.21a9.32,9.32,0,0,1,9.29,9.3h0a9.32,9.32,0,0,1-9.29,9.29H128.1a9.32,9.32,0,0,1-9.29-9.29h0a9.61,9.61,0,0,1,.17-1.79,13.1,13.1,0,0,1-.17-2.09,12.63,12.63,0,0,1,20.51-9.88,19.3,19.3,0,0,1,23.14-9.95,29.67,29.67,0,0,1,57-.37A19.27,19.27,0,0,1,238,115.79a29.43,29.43,0,0,1,35.93-25A45.24,45.24,0,0,1,317.27,58.35Z" transform="translate(-20.81 -21.26)"/><g id="_3" data-name="3"><path class="cls-4" d="M401.22,143.65H138.41a10.21,10.21,0,0,1,16.52-6.86A15.6,15.6,0,0,1,169,128a15.76,15.76,0,0,1,4.69.72,24,24,0,0,1,46.13-.3,15.77,15.77,0,0,1,3.6-.42,15.58,15.58,0,0,1,11.32,4.88,23.74,23.74,0,0,1,23.57-20.82,24.1,24.1,0,0,1,5.48.63,36.58,36.58,0,0,1,70.31.46,23.8,23.8,0,0,1,28.51,12.27,15.58,15.58,0,0,1,25.29,12.17,16,16,0,0,1-.25,2.79h7.45A7.51,7.51,0,0,1,401.22,143.65Z" transform="translate(-20.81 -21.26)"/><rect class="cls-5" x="373.76" y="95.31" width="14.37" height="14.18" rx="7.09"/></g></g><g id="typography"><text class="cls-6" transform="translate(0 197.48)"><tspan class="cls-7">ov</tspan><tspan x="109.43" y="0">er</tspan><tspan class="cls-8" x="215.01" y="0">c</tspan><tspan x="266.78" y="0">ast-ui</tspan></text></g></svg>